<?xml version="1.0" encoding="UTF-8"?>
<svg xmlns="http://www.w3.org/2000/svg" version="1.1" width="300" height="300" viewBox="0 0 300 300"><rect x="0" y="0" width="300" height="300" fill="#ffffff"/><g transform="scale(8.108)"><g transform="translate(2,2)"><path fill-rule="evenodd" d="M10 0L10 2L11 2L11 0ZM12 0L12 1L13 1L13 0ZM16 0L16 1L14 1L14 2L18 2L18 3L15 3L15 4L14 4L14 3L13 3L13 2L12 2L12 4L14 4L14 5L15 5L15 6L14 6L14 7L15 7L15 6L16 6L16 7L17 7L17 6L18 6L18 8L17 8L17 9L16 9L16 8L15 8L15 9L16 9L16 10L14 10L14 9L12 9L12 7L13 7L13 5L11 5L11 6L10 6L10 4L11 4L11 3L8 3L8 4L9 4L9 5L8 5L8 7L9 7L9 8L6 8L6 9L5 9L5 8L0 8L0 9L1 9L1 10L0 10L0 13L1 13L1 11L2 11L2 13L3 13L3 14L2 14L2 15L1 15L1 16L0 16L0 18L1 18L1 19L0 19L0 25L1 25L1 21L2 21L2 20L3 20L3 19L2 19L2 18L1 18L1 17L3 17L3 18L4 18L4 17L7 17L7 18L6 18L6 19L4 19L4 21L3 21L3 22L2 22L2 23L3 23L3 24L2 24L2 25L3 25L3 24L4 24L4 25L5 25L5 24L4 24L4 22L5 22L5 21L7 21L7 22L6 22L6 23L7 23L7 22L8 22L8 24L6 24L6 25L8 25L8 27L9 27L9 24L11 24L11 25L10 25L10 28L8 28L8 33L9 33L9 32L10 32L10 31L11 31L11 33L12 33L12 31L13 31L13 30L11 30L11 25L12 25L12 26L13 26L13 27L12 27L12 29L13 29L13 28L14 28L14 29L15 29L15 28L16 28L16 29L19 29L19 30L20 30L20 32L22 32L22 33L23 33L23 32L24 32L24 33L25 33L25 32L24 32L24 31L27 31L27 32L28 32L28 33L29 33L29 31L30 31L30 32L31 32L31 33L32 33L32 32L31 32L31 31L30 31L30 30L33 30L33 28L32 28L32 26L33 26L33 24L32 24L32 26L31 26L31 25L30 25L30 24L31 24L31 23L32 23L32 22L33 22L33 21L32 21L32 20L31 20L31 19L32 19L32 18L33 18L33 17L32 17L32 16L31 16L31 15L32 15L32 14L33 14L33 13L31 13L31 15L30 15L30 13L29 13L29 10L28 10L28 8L27 8L27 9L26 9L26 8L24 8L24 9L18 9L18 8L20 8L20 7L21 7L21 8L22 8L22 7L23 7L23 6L22 6L22 7L21 7L21 5L24 5L24 3L25 3L25 0L23 0L23 1L22 1L22 2L21 2L21 3L20 3L20 4L19 4L19 2L18 2L18 1L17 1L17 0ZM19 0L19 1L20 1L20 0ZM8 1L8 2L9 2L9 1ZM23 1L23 3L24 3L24 1ZM15 4L15 5L18 5L18 6L19 6L19 7L20 7L20 5L21 5L21 4L20 4L20 5L19 5L19 4ZM9 6L9 7L10 7L10 6ZM11 6L11 7L12 7L12 6ZM24 6L24 7L25 7L25 6ZM10 8L10 9L6 9L6 10L5 10L5 9L4 9L4 10L2 10L2 11L4 11L4 13L5 13L5 15L4 15L4 14L3 14L3 15L2 15L2 16L3 16L3 15L4 15L4 16L7 16L7 17L9 17L9 18L8 18L8 20L7 20L7 19L6 19L6 20L7 20L7 21L8 21L8 20L11 20L11 21L10 21L10 22L9 22L9 23L11 23L11 22L13 22L13 23L12 23L12 25L15 25L15 26L17 26L17 27L16 27L16 28L18 28L18 27L20 27L20 26L18 26L18 25L22 25L22 26L21 26L21 27L23 27L23 29L22 29L22 28L21 28L21 29L20 29L20 28L19 28L19 29L20 29L20 30L21 30L21 29L22 29L22 30L23 30L23 31L24 31L24 27L23 27L23 26L24 26L24 25L22 25L22 24L20 24L20 23L21 23L21 21L22 21L22 22L23 22L23 23L24 23L24 24L27 24L27 22L25 22L25 21L27 21L27 20L28 20L28 19L26 19L26 18L25 18L25 17L28 17L28 18L29 18L29 17L30 17L30 19L29 19L29 20L30 20L30 21L28 21L28 24L30 24L30 23L29 23L29 22L30 22L30 21L31 21L31 20L30 20L30 19L31 19L31 16L30 16L30 15L29 15L29 13L28 13L28 16L26 16L26 14L25 14L25 13L27 13L27 12L28 12L28 11L27 11L27 10L25 10L25 9L24 9L24 10L22 10L22 12L21 12L21 13L20 13L20 10L19 10L19 11L18 11L18 9L17 9L17 12L18 12L18 13L14 13L14 12L15 12L15 11L14 11L14 12L13 12L13 13L12 13L12 11L13 11L13 10L12 10L12 9L11 9L11 8ZM29 8L29 9L30 9L30 8ZM31 8L31 10L33 10L33 9L32 9L32 8ZM10 9L10 11L11 11L11 9ZM6 10L6 11L5 11L5 13L7 13L7 12L8 12L8 14L6 14L6 15L9 15L9 16L11 16L11 17L12 17L12 18L13 18L13 19L12 19L12 21L13 21L13 20L14 20L14 21L17 21L17 22L18 22L18 24L17 24L17 23L16 23L16 22L15 22L15 23L14 23L14 24L15 24L15 25L18 25L18 24L19 24L19 22L20 22L20 21L21 21L21 20L22 20L22 21L23 21L23 22L24 22L24 21L25 21L25 19L24 19L24 20L23 20L23 19L22 19L22 18L24 18L24 17L25 17L25 16L24 16L24 15L25 15L25 14L24 14L24 13L25 13L25 12L26 12L26 11L25 11L25 10L24 10L24 11L25 11L25 12L24 12L24 13L21 13L21 14L20 14L20 13L18 13L18 14L20 14L20 15L21 15L21 16L16 16L16 15L17 15L17 14L15 14L15 15L14 15L14 16L15 16L15 17L12 17L12 15L13 15L13 14L10 14L10 13L11 13L11 12L8 12L8 10ZM6 11L6 12L7 12L7 11ZM30 11L30 12L31 12L31 11ZM9 14L9 15L10 15L10 14ZM22 14L22 15L24 15L24 14ZM21 16L21 17L20 17L20 18L19 18L19 17L15 17L15 18L16 18L16 19L14 19L14 20L18 20L18 19L20 19L20 20L19 20L19 21L18 21L18 22L19 22L19 21L20 21L20 20L21 20L21 17L23 17L23 16ZM28 16L28 17L29 17L29 16ZM9 18L9 19L10 19L10 18ZM17 18L17 19L18 19L18 18ZM15 23L15 24L16 24L16 23ZM25 25L25 28L28 28L28 25ZM29 25L29 28L30 28L30 29L31 29L31 28L30 28L30 27L31 27L31 26L30 26L30 25ZM26 26L26 27L27 27L27 26ZM14 27L14 28L15 28L15 27ZM9 29L9 30L10 30L10 29ZM25 29L25 30L28 30L28 31L29 31L29 30L28 30L28 29ZM15 30L15 31L14 31L14 32L15 32L15 33L19 33L19 31L18 31L18 32L15 32L15 31L17 31L17 30ZM0 0L0 7L7 7L7 0ZM1 1L1 6L6 6L6 1ZM2 2L2 5L5 5L5 2ZM26 0L26 7L33 7L33 0ZM27 1L27 6L32 6L32 1ZM28 2L28 5L31 5L31 2ZM0 26L0 33L7 33L7 26ZM1 27L1 32L6 32L6 27ZM2 28L2 31L5 31L5 28Z" fill="#000000"/></g></g></svg>
